<?xml version="1.0" standalone="no"?>
<!DOCTYPE svg PUBLIC "-//W3C//DTD SVG 20010904//EN"
 "http://www.w3.org/TR/2001/REC-SVG-20010904/DTD/svg10.dtd">
<svg version="1.0" xmlns="http://www.w3.org/2000/svg"
 width="260.000000pt" height="260.000000pt" viewBox="0 0 260.000000 260.000000"
 preserveAspectRatio="xMidYMid meet">
<metadata>
Created by potrace 1.11, written by Peter Selinger 2001-2013
</metadata>
<g transform="translate(0.000000,260.000000) scale(0.100000,-0.100000)"
fill="#000000" stroke="none">
<path d="M0 1300 l0 -1300 1300 0 1300 0 0 1300 0 1300 -1300 0 -1300 0 0
-1300z m1156 295 c34 -148 79 -345 100 -437 21 -92 39 -166 40 -165 1 1 45
191 99 422 53 231 99 428 101 438 5 15 22 17 175 17 l169 0 0 -560 c0 -308 0
-563 0 -567 0 -5 -49 -9 -110 -11 l-110 -3 -2 451 -3 451 -43 -193 c-24 -106
-69 -308 -101 -448 l-58 -255 -119 -3 -120 -3 -73 328 c-41 180 -86 382 -102
448 l-28 120 0 -447 -1 -448 -115 0 -115 0 0 563 c0 310 3 567 7 571 4 3 83 5
176 4 l170 -3 63 -270z"/>
</g>
</svg>
