<?xml version="1.0" standalone="no"?>
<!DOCTYPE svg PUBLIC "-//W3C//DTD SVG 20010904//EN"
 "http://www.w3.org/TR/2001/REC-SVG-20010904/DTD/svg10.dtd">
<svg version="1.0" xmlns="http://www.w3.org/2000/svg"
 width="200.000000pt" height="200.000000pt" viewBox="0 0 200.000000 200.000000"
 preserveAspectRatio="xMidYMid meet">
<metadata>
Created by potrace 1.11, written by Peter Selinger 2001-2013
</metadata>
<g transform="translate(0.000000,200.000000) scale(0.100000,-0.100000)"
fill="#000000" stroke="none">
<path d="M895 1990 c-3 -5 -3 -15 1 -21 4 -7 -1 -7 -16 1 -16 8 -20 9 -15 1 4
-8 -3 -10 -25 -6 -24 4 -30 2 -24 -7 6 -10 4 -10 -7 -2 -20 15 -44 11 -43 -7
1 -10 -7 -16 -20 -16 -45 -1 -59 -3 -53 -9 11 -12 -23 -36 -41 -29 -23 9 -28
6 -24 -12 3 -11 -1 -14 -13 -9 -9 3 -13 2 -10 -4 3 -6 -1 -13 -9 -16 -9 -3
-13 -10 -10 -15 5 -9 -15 -13 -48 -10 -9 1 -20 -3 -24 -10 -5 -8 -3 -9 7 -4
12 8 12 6 1 -8 -9 -10 -25 -15 -43 -13 -17 2 -29 -1 -29 -8 0 -6 -5 -4 -10 4
-7 11 -10 11 -10 2 0 -8 -5 -10 -12 -6 -8 5 -9 2 -5 -10 4 -9 3 -14 -2 -11 -5
3 -13 1 -16 -5 -5 -8 -11 -8 -20 0 -10 8 -15 8 -20 0 -5 -8 -11 -7 -23 2 -9 8
-13 8 -9 2 4 -7 0 -15 -9 -18 -8 -3 -13 -10 -9 -15 3 -6 -7 -9 -26 -6 -17 2
-29 1 -26 -2 9 -9 -22 -35 -33 -28 -5 3 -10 2 -10 -4 0 -6 -7 -8 -15 -5 -9 4
-18 -1 -22 -12 -5 -11 -14 -19 -20 -20 -7 -1 -22 -2 -33 -2 -11 -1 -19 -8 -18
-14 2 -7 -3 -12 -10 -10 -7 1 -17 -9 -22 -23 -5 -14 -15 -24 -22 -23 -7 2 -12
-3 -11 -9 2 -7 -2 -13 -8 -13 -5 0 -7 -4 -4 -10 3 -6 -1 -7 -9 -4 -14 5 -16
-21 -16 -235 0 -203 2 -241 14 -241 8 0 18 -9 21 -20 6 -18 17 -24 37 -21 5 0
7 -2 7 -7 -4 -25 2 -34 15 -23 12 10 13 9 9 -7 -2 -11 1 -23 8 -27 8 -5 10 -4
5 3 -4 7 -2 12 3 12 9 0 15 -19 13 -41 -1 -4 7 -6 16 -6 46 0 63 -4 57 -13 -3
-5 -1 -10 6 -10 7 0 4 -7 -7 -16 -10 -8 -13 -13 -6 -9 7 4 12 0 12 -9 0 -9 -3
-15 -7 -15 -20 3 -34 -2 -28 -11 3 -6 -5 -14 -19 -20 -14 -5 -26 -12 -26 -15
0 -4 6 -3 12 1 9 5 9 2 -1 -9 -7 -9 -19 -17 -26 -17 -8 0 -12 -10 -10 -25 1
-14 -2 -25 -6 -25 -5 0 -9 -5 -9 -11 0 -5 5 -7 12 -3 6 4 8 3 5 -4 -4 -5 -17
-8 -28 -5 -19 5 -20 4 -10 -16 9 -16 9 -21 -1 -21 -9 0 -9 -3 2 -10 13 -9 13
-10 0 -11 -8 -1 -21 -1 -28 0 -11 2 -11 -2 -2 -20 9 -15 9 -19 1 -14 -8 4 -10
-3 -6 -25 4 -20 2 -29 -5 -25 -12 7 -2 -23 14 -44 8 -11 8 -13 0 -8 -7 4 -11
-7 -10 -34 1 -33 4 -39 18 -35 11 2 15 0 12 -6 -4 -6 0 -14 7 -19 11 -7 11 -9
1 -9 -10 0 -10 -5 -2 -20 8 -15 8 -20 -1 -20 -8 0 -9 -4 0 -13 6 -8 7 -18 3
-22 -4 -5 -1 -5 6 -1 6 4 12 2 12 -4 0 -6 5 -8 10 -5 14 9 12 -8 -3 -24 -9
-11 -9 -13 0 -7 9 5 13 0 13 -13 0 -12 6 -20 13 -19 6 2 11 -3 9 -10 -1 -6 5
-12 13 -12 8 0 15 -5 15 -11 0 -5 4 -7 10 -4 6 3 7 -1 4 -9 -4 -10 -1 -16 10
-16 8 0 23 -11 32 -25 9 -14 21 -22 27 -18 5 3 8 2 5 -3 -6 -12 28 -44 38 -36
4 4 4 2 1 -4 -8 -14 16 -37 27 -27 4 4 4 0 1 -9 -4 -9 -2 -19 4 -23 6 -3 11
-1 11 5 0 7 6 8 17 1 10 -5 23 -10 28 -11 6 -1 12 -4 15 -7 3 -4 -2 -3 -10 2
-12 6 -13 5 -3 -5 16 -17 46 -22 54 -9 3 6 16 4 32 -4 19 -10 23 -17 15 -25
-8 -8 95 -11 395 -12 285 0 407 3 407 10 0 6 -6 8 -12 5 -7 -4 -4 1 6 9 12 10
30 14 48 11 17 -3 27 -2 24 4 -3 5 2 8 11 6 10 -2 18 -4 18 -6 0 -1 10 -3 23
-4 19 -2 20 0 10 13 -10 13 -10 14 0 8 7 -4 15 -1 18 9 4 9 12 14 19 11 7 -2
12 3 11 12 -1 13 7 17 31 16 26 -1 31 3 28 19 -3 13 0 17 10 13 8 -3 15 -1 15
5 0 6 4 8 9 5 5 -3 8 2 7 12 0 9 5 16 12 14 6 -1 12 3 12 9 0 5 6 7 13 3 7 -5
6 0 -3 11 -9 11 -10 16 -2 11 7 -4 12 -2 12 5 0 7 3 10 6 6 8 -8 33 16 27 26
-2 4 3 7 11 7 11 0 15 7 12 23 -2 13 4 28 14 37 10 8 20 26 22 40 2 14 9 30
16 35 18 14 26 65 10 65 -8 0 -9 3 -3 8 10 6 11 20 5 40 -1 4 -1 12 0 17 9 42
9 55 0 60 -7 4 -6 13 1 27 8 15 8 19 0 14 -6 -4 -11 -2 -11 4 0 6 -5 8 -11 5
-7 -5 -9 11 -7 46 3 46 6 53 26 56 16 2 21 -1 16 -9 -5 -7 -3 -8 7 -2 8 5 21
9 29 9 8 0 14 8 14 17 -1 10 2 15 8 12 5 -3 16 0 25 8 14 11 16 11 8 -2 -8
-13 -7 -13 8 -1 9 7 17 9 17 4 0 -5 7 -10 15 -10 14 0 19 10 16 30 -1 5 3 6 9
2 6 -3 7 -11 4 -17 -5 -7 -2 -8 5 -4 7 5 10 14 7 22 -3 8 0 11 10 7 8 -3 14 1
14 8 0 12 2 12 9 0 5 -7 14 -10 20 -7 6 4 9 11 6 16 -3 4 4 10 15 13 20 5 20
12 18 279 -2 220 -6 272 -16 270 -8 -1 -11 2 -7 8 3 5 1 10 -5 10 -6 0 -8 5
-5 10 3 6 1 11 -4 11 -6 1 -17 2 -23 3 -7 1 -11 10 -10 21 2 11 1 17 -3 13 -4
-4 -17 3 -29 16 -11 12 -32 22 -46 21 -14 0 -24 5 -23 12 1 6 -5 17 -14 25
-14 11 -16 11 -8 -1 5 -10 4 -12 -3 -7 -7 4 -12 15 -12 25 0 10 -17 27 -40 40
-22 12 -40 25 -40 27 0 3 4 3 9 0 5 -3 9 6 9 19 0 18 -6 25 -20 25 -10 0 -17
4 -13 9 6 10 -29 34 -37 26 -2 -3 -4 11 -3 30 2 31 -4 40 -27 36 -4 0 -5 8 -3
19 3 14 -2 20 -16 20 -17 0 -24 11 -20 33 1 5 -3 6 -9 2 -5 -3 -10 0 -10 7 0
10 -2 10 -9 -1 -7 -11 -10 -9 -13 10 -2 15 -9 24 -20 23 -10 -1 -17 1 -16 5 2
20 -3 31 -13 25 -14 -8 -60 16 -53 28 3 4 -11 8 -31 8 -30 0 -36 3 -31 16 3 8
2 12 -4 9 -6 -3 -10 -2 -10 3 0 6 -7 13 -16 16 -9 3 -12 2 -9 -4 4 -7 -5 -9
-25 -5 -20 4 -29 2 -25 -5 3 -6 0 -7 -9 -4 -9 3 -14 9 -11 13 2 4 -6 7 -18 7
-13 -1 -21 4 -20 12 4 15 -332 18 -342 2z m876 -437 c13 -16 12 -17 -3 -4 -17
13 -22 21 -14 21 2 0 10 -8 17 -17z"/>
</g>
</svg>
