<?xml version="1.0" encoding="UTF-8" standalone="no"?>
<svg width="320px" height="70px" viewBox="0 0 320 70" version="1.1" xmlns="http://www.w3.org/2000/svg" xmlns:xlink="http://www.w3.org/1999/xlink" style="background: #FFFFFF;">
    <!-- Generator: Sketch 41 (35326) - http://www.bohemiancoding.com/sketch -->
    <title>Donations</title>
    <desc>Created with Sketch.</desc>
    <defs>
        <rect id="path-1" x="0" y="0" width="320" height="70"></rect>
        <mask id="mask-2" maskContentUnits="userSpaceOnUse" maskUnits="objectBoundingBox" x="0" y="0" width="320" height="70" fill="white">
            <use xlink:href="#path-1"></use>
        </mask>
    </defs>
    <g id="Freebie-001" stroke="none" stroke-width="1" fill="none" fill-rule="evenodd">
        <g id="Donations">
            <g id="Group" transform="translate(19.000000, 16.000000)" fill="#333333">
                <text id="Donations" font-family="HelveticaNeue-Bold, Helvetica Neue" font-size="20" font-weight="bold">
                    <tspan x="0.5" y="20">Donations</tspan>
                </text>
                <text id="寄付" font-family="PingFangSC-Regular, PingFang SC" font-size="10" font-weight="normal">
                    <tspan x="0" y="35">寄付</tspan>
                </text>
            </g>
            <g id="giftbox" transform="translate(240.000000, 20.000000)" fill="#333333">
                <g id="Group">
                    <g transform="translate(0.326555, 0.000000)" id="Shape">
                        <path d="M7.65230383,16.9598164 C7.65230383,16.1486556 8.21533134,15.153666 8.90347608,14.7482998 L15.6509892,10.7734835 C16.339134,10.3681173 16.339134,9.70479094 15.6509892,9.2989963 L10.3301483,6.1649076 C9.64200359,5.75911296 8.51552871,5.75911296 7.82738397,6.1649076 L1.25117225,10.0403107 C0.563027512,10.4456768 0,11.4406664 0,12.2522557 L0,22.303279 C0,23.1144398 0.563027512,24.1094294 1.25117225,24.5152241 L6.40071172,27.549471 C7.08885646,27.9552657 7.65230383,27.6231739 7.65230383,26.8120132 L7.65230383,16.9598164 Z"></path>
                        <path d="M18.0160407,7.90592516 C18.7041854,8.31129129 19.8306603,8.31129129 20.518805,7.90592516 L25.4659737,4.99165974 C26.1545383,4.5862936 26.1545383,3.92253869 25.4659737,3.51717256 L20.1447129,0.381798337 C19.4565682,-0.023996304 18.3305132,-0.023996304 17.6419486,0.381798337 L12.6947799,3.29692077 C12.0066352,3.70271541 12.0066352,4.36604181 12.6947799,4.77140795 L18.0160407,7.90592516 Z"></path>
                        <path d="M28.5183301,18.353316 C28.5183301,17.5421552 27.9553026,16.5471656 27.266738,16.141371 L20.518805,12.1665546 C19.8306603,11.76076 18.7041854,11.76076 18.0160407,12.1665546 L11.2681077,16.141371 C10.5799629,16.5471656 10.0165156,17.5421552 10.0165156,18.353316 L10.0165156,28.2055128 C10.0165156,29.0166736 10.5795431,30.0116632 11.2676878,30.4174578 L17.6423684,34.1733079 C18.3305132,34.5791026 19.456988,34.5791026 20.1451328,34.1733079 L27.2671579,29.9769543 C27.9557225,29.5711596 28.51875,28.5757415 28.51875,27.7650092 L28.51875,18.353316 L28.5183301,18.353316 Z"></path>
                        <path d="M30.3333696,6.38515939 C29.644805,5.97936475 28.51875,5.97936475 27.8301854,6.38473088 L22.8838565,9.2985678 C22.1957117,9.70436244 22.1957117,10.3676888 22.8838565,10.773055 L29.6309498,14.7474428 C30.3195144,15.152809 30.8825419,16.1482271 30.8825419,16.9589593 L30.8825419,26.3706526 C30.8825419,27.1818134 31.4455694,27.5134766 32.1337141,27.1081104 L36.5359091,24.5143671 C37.2240538,24.1085724 37.7870813,23.1131543 37.7870813,22.302422 L37.7870813,12.2522557 C37.7870813,11.4410949 37.2240538,10.4456768 36.5359091,10.0403107 L30.3333696,6.38515939 Z"></path>
                    </g>
                </g>
            </g>
            <use id="Rectangle" stroke="#333333" mask="url(#mask-2)" stroke-width="4" xlink:href="#path-1"></use>
        </g>
    </g>
</svg>