<?xml version="1.0" encoding="UTF-8" standalone="no"?>
<svg width="320px" height="70px" viewBox="0 0 320 70" version="1.1" xmlns="http://www.w3.org/2000/svg" xmlns:xlink="http://www.w3.org/1999/xlink" style="background: #FFFFFF;">
    <!-- Generator: Sketch 41 (35326) - http://www.bohemiancoding.com/sketch -->
    <title>Social</title>
    <desc>Created with Sketch.</desc>
    <defs>
        <rect id="path-1" x="0" y="0" width="320" height="70"></rect>
        <mask id="mask-2" maskContentUnits="userSpaceOnUse" maskUnits="objectBoundingBox" x="0" y="0" width="320" height="70" fill="white">
            <use xlink:href="#path-1"></use>
        </mask>
    </defs>
    <g id="Freebie-001" stroke="none" stroke-width="1" fill="none" fill-rule="evenodd">
        <g id="Social">
            <g id="Group" transform="translate(19.000000, 16.000000)" fill="#333333">
                <text id="Social" font-family="HelveticaNeue-Bold, Helvetica Neue" font-size="20" font-weight="bold">
                    <tspan x="0" y="20">Social</tspan>
                </text>
                <text id="ソーシャルメディア" font-family="PingFangSC-Regular, PingFang SC" font-size="10" font-weight="normal">
                    <tspan x="0" y="35">ソーシャルメディア</tspan>
                </text>
            </g>
            <g id="Icon" transform="translate(229.000000, 18.000000)" fill="#333333">
                <g id="Group">
                    <g id="Shape">
                        <path d="M35.2251521,19.0874867 C36.541682,17.645573 37.2939848,15.7021242 37.2939848,13.6959834 L37.2939848,8.93139904 C37.2939848,4.4802742 33.6578546,0.906835938 29.2694216,0.906835938 C24.8809887,0.906835938 21.2448585,4.4802742 21.2448585,8.93139904 L21.2448585,13.6959834 C21.2448585,15.6394323 21.9344694,17.4574973 23.1883074,18.899411 C22.0598532,19.4636381 20.7433233,20.2786328 19.4894854,21.0309356 C14.9129767,23.914763 14.2860577,25.3566767 14.2860577,26.4224389 L14.2860577,31.6258666 C14.2860577,32.5035532 14.9756686,33.1931641 15.8533552,33.1931641 L42.3093367,33.1931641 C43.1870233,33.1931641 43.8766342,32.5035532 43.8766342,31.6258666 L43.8766342,26.4851308 C43.8139423,24.0401468 38.4224389,20.780168 35.2251521,19.0874867 Z M40.6793473,30.0585691 L17.3579608,30.0585691 L17.3579608,26.6105146 C18.2356474,25.168601 24.8182968,21.3443951 26.5109781,20.7174761 C27.0752052,20.5294004 27.5140485,19.9651733 27.5140485,19.4009462 C27.5140485,18.8367191 27.2632809,18.2098001 26.7617457,17.8963406 C25.2571401,17.0186541 24.3167616,15.3886647 24.3167616,13.6959834 L24.3167616,8.93139904 C24.3167616,6.23564738 26.5109781,4.0414309 29.2067297,4.0414309 C31.9024814,4.0414309 34.0966979,6.23564738 34.0966979,8.93139904 L34.0966979,13.6959834 C34.0966979,15.4513566 33.0936275,17.1440378 31.52633,18.0217244 C31.0247948,18.3351839 30.7113353,18.899411 30.7113353,19.4636381 C30.7113353,20.0278652 31.0874867,20.5920923 31.6517138,20.8428599 C33.5324708,21.6578546 39.7389688,25.2939848 40.5539635,26.6732065 L40.5539635,30.0585691 L40.6793473,30.0585691 Z"></path>
                        <path d="M16.4802742,21.407087 C17.4206527,20.6547842 18.486415,19.9651733 19.4894854,19.4009462 C18.7371826,18.9621029 18.1102636,18.5859515 17.6714203,18.272492 C18.9252583,16.454427 19.740253,14.0721348 19.740253,11.6271507 C19.740253,7.05064207 16.7937337,3.66527951 12.7187602,3.66527951 C8.64378679,3.66527951 5.69726752,6.98795017 5.69726752,11.6271507 C5.69726752,14.0094429 6.44957031,16.3290432 7.6407164,18.0844163 C6.63764601,18.6486434 5.19573233,19.52633 3.12689965,20.8428599 C1.37152647,21.9713141 0.368456083,23.9774549 0.368456083,26.1089794 L0.368456083,27.6762769 C0.368456083,29.0554987 1.43421837,30.121261 2.81344015,30.121261 L13.0322197,30.121261 L13.0322197,26.8612822 L3.56574295,26.8612822 L3.56574295,26.1716713 C3.56574295,25.1059091 4.06727814,24.1655306 4.81958093,23.6639954 C7.1391812,22.2220817 9.96031667,20.5294004 10.5872357,20.2159409 C11.1514628,20.0905571 11.5903061,19.6517138 11.7783818,19.0874867 C11.9664574,18.4605677 11.7156899,17.7709568 11.2141547,17.3948054 C9.83493287,16.2663513 8.83186248,13.946751 8.83186248,11.6898426 C8.83186248,8.86870715 10.3364681,7.05064207 12.5933764,7.05064207 C14.8502848,7.05064207 16.3548904,8.93139904 16.3548904,11.6898426 C16.3548904,14.0094429 15.35182,16.3290432 13.9099063,17.4574973 C13.4083711,17.8336487 13.1576035,18.4605677 13.2829873,19.0874867 C13.4083711,19.6517138 13.7845225,20.0905571 14.3487496,20.2786328 C14.724901,20.4040166 15.4772038,20.8428599 16.4802742,21.407087 Z"></path>
                        <path d="M53.9073381,20.5920923 L53.7819543,20.5294004 C54.0327219,20.4040166 54.2207976,20.2159409 54.3461814,19.9651733 C54.6596409,19.4636381 54.6596409,18.899411 54.4088733,18.3978758 C54.4088733,18.3978758 53.4058029,16.3917351 53.2177272,14.4482862 L53.0923434,11.1256155 C53.0923434,7.11333397 49.8950565,3.7906633 46.0081588,3.7279714 L45.9454669,3.7279714 C42.0585691,3.7906633 38.8612822,7.11333397 38.8612822,11.1256155 L38.7358984,14.4482862 C38.5478227,16.3917351 37.5447524,18.3978758 37.5447524,18.3978758 C37.4820605,18.5232596 37.4820605,18.6486434 37.4193686,18.7113353 C38.9239741,19.5890219 40.9928068,20.780168 42.5601043,22.2220817 C43.5004828,21.7832384 44.2527856,20.9055518 44.5035532,19.9024814 L44.628937,19.52633 C44.7543208,19.0247948 44.628937,18.5232596 44.3154775,18.0844163 C44.002018,17.7082649 43.5004828,17.4574973 42.9989476,17.4574973 L41.3689582,17.4574973 C41.6197258,16.6425027 41.8704934,15.6394323 41.9331853,14.6363619 L41.9331853,14.57367 L42.0585691,11.1883074 L42.0585691,11.1256155 C42.0585691,8.86870715 43.8139423,7.05064207 45.882775,6.98795017 C48.0142995,7.05064207 49.7069808,8.86870715 49.7069808,11.1256155 L49.7069808,11.1883074 L49.8323646,14.57367 L49.8323646,14.6363619 C49.8950565,15.6394323 50.1458241,16.6425027 50.3965917,17.4574973 L48.7666023,17.4574973 C48.2650671,17.4574973 47.7635319,17.7082649 47.4500724,18.0844163 C47.1366129,18.4605677 47.0112291,19.0247948 47.1366129,19.52633 L47.2619967,19.9024814 C47.5754562,20.9682437 48.327759,21.9086222 49.3935213,22.3474655 L52.5281163,23.6639954 C53.5938786,24.1028387 54.3461814,25.1059091 54.4088733,26.1716713 L54.4088733,26.1716713 L54.4088733,26.359747 L54.4088733,26.986666 L45.1304722,26.986666 L45.1304722,30.1839529 L55.3492517,30.1839529 C56.6657816,30.1839529 57.7315439,29.0554987 57.7315439,27.7389688 L57.7315439,26.2970551 L57.7315439,25.9209037 C57.6061601,23.6013035 56.1015545,21.4697789 53.9073381,20.5920923 Z"></path>
                    </g>
                </g>
            </g>
            <use id="Rectangle" stroke="#333333" mask="url(#mask-2)" stroke-width="4" xlink:href="#path-1"></use>
        </g>
    </g>
</svg>