<svg xmlns="http://www.w3.org/2000/svg" viewBox="0 0 242.94 199.87">
  <defs>
    <style>
      .cls-1 {
        opacity: 0.5;
      }

      .cls-2 {
        fill: none;
        stroke: #262626;
      }
    </style>
  </defs>
  <title>Asset 1</title>
  <g id="Layer_2" data-name="Layer 2">
    <g id="Guides">
      <g id="SECTION_-1" data-name="SECTION -1">
        <g id="UI">
          <g class="cls-1">
            <rect class="cls-2" x="0.5" y="0.5" width="241.94" height="36.57"/>
            <rect class="cls-2" x="0.5" y="114.24" width="85.13" height="85.13"/>
            <rect class="cls-2" x="0.5" y="54.39" width="36.57" height="36.57"/>
            <rect class="cls-2" x="84.9" y="54.39" width="36.57" height="36.57"/>
            <rect class="cls-2" x="162.26" y="54.39" width="36.57" height="36.57"/>
            <rect class="cls-2" x="105.53" y="126.16" width="136.91" height="3.28"/>
            <rect class="cls-2" x="105.53" y="155.16" width="136.91" height="3.28"/>
            <rect class="cls-2" x="105.53" y="184.17" width="136.91" height="3.28"/>
            <g>
              <line class="cls-2" x1="0.5" y1="199.37" x2="85.63" y2="114.24"/>
              <line class="cls-2" x1="0.5" y1="114.24" x2="85.63" y2="199.37"/>
              <line class="cls-2" x1="0.5" y1="90.96" x2="37.07" y2="54.39"/>
              <line class="cls-2" x1="0.5" y1="54.39" x2="37.07" y2="90.96"/>
              <line class="cls-2" x1="84.9" y1="54.39" x2="121.47" y2="90.96"/>
              <line class="cls-2" x1="84.9" y1="90.96" x2="121.47" y2="54.39"/>
              <line class="cls-2" x1="162.26" y1="54.39" x2="198.83" y2="90.96"/>
              <line class="cls-2" x1="162.26" y1="90.96" x2="198.83" y2="54.39"/>
            </g>
          </g>
        </g>
      </g>
    </g>
  </g>
</svg>
