<svg xmlns="http://www.w3.org/2000/svg" viewBox="0 0 244.78 202.18">
  <defs>
    <style>
      .cls-1 {
        opacity: 0.25;
      }

      .cls-2 {
        fill: #00f0b5;
      }

      .cls-3 {
        opacity: 0.5;
      }

      .cls-4 {
        fill: none;
        stroke: #262626;
      }
    </style>
  </defs>
  <title>Asset 1</title>
  <g id="Layer_2" data-name="Layer 2">
    <g id="Guides">
      <g id="SECTION_-1" data-name="SECTION -1">
        <g id="UI">
          <g class="cls-1">
            <rect class="cls-2" x="2.85" width="241.94" height="36.57"/>
            <rect class="cls-2" x="2.85" y="113.74" width="85.13" height="85.13"/>
            <rect class="cls-2" x="2.85" y="53.89" width="36.57" height="36.57"/>
            <rect class="cls-2" x="87.24" y="53.89" width="36.57" height="36.57"/>
            <rect class="cls-2" x="164.61" y="53.89" width="36.57" height="36.57"/>
            <rect class="cls-2" x="107.87" y="125.66" width="136.91" height="3.28"/>
            <rect class="cls-2" x="107.87" y="154.66" width="136.91" height="3.28"/>
            <rect class="cls-2" x="107.87" y="183.67" width="136.91" height="3.28"/>
          </g>
          <g class="cls-3">
            <rect class="cls-4" x="0.5" y="2.82" width="241.94" height="36.57"/>
            <rect class="cls-4" x="0.5" y="116.55" width="85.13" height="85.13"/>
            <rect class="cls-4" x="0.5" y="56.7" width="36.57" height="36.57"/>
            <rect class="cls-4" x="84.9" y="56.7" width="36.57" height="36.57"/>
            <rect class="cls-4" x="162.26" y="56.7" width="36.57" height="36.57"/>
            <rect class="cls-4" x="105.53" y="128.47" width="136.91" height="3.28"/>
            <rect class="cls-4" x="105.53" y="157.48" width="136.91" height="3.28"/>
            <rect class="cls-4" x="105.53" y="186.48" width="136.91" height="3.28"/>
            <g>
              <line class="cls-4" x1="0.5" y1="201.68" x2="85.63" y2="116.55"/>
              <line class="cls-4" x1="0.5" y1="116.55" x2="85.63" y2="201.68"/>
              <line class="cls-4" x1="0.5" y1="93.28" x2="37.07" y2="56.7"/>
              <line class="cls-4" x1="0.5" y1="56.7" x2="37.07" y2="93.28"/>
              <line class="cls-4" x1="84.9" y1="56.7" x2="121.47" y2="93.28"/>
              <line class="cls-4" x1="84.9" y1="93.28" x2="121.47" y2="56.7"/>
              <line class="cls-4" x1="162.26" y1="56.7" x2="198.83" y2="93.28"/>
              <line class="cls-4" x1="162.26" y1="93.28" x2="198.83" y2="56.7"/>
            </g>
          </g>
        </g>
      </g>
    </g>
  </g>
</svg>
